<svg xmlns="http://www.w3.org/2000/svg" viewBox="0 0 900 620" role="img" aria-label="Regression diagnostics dashboard"><rect width="100%" height="100%" fill="white"/><text x="450.0" y="30.0" text-anchor="middle" font-family="Arial,sans-serif" font-size="20" font-weight="bold" fill="#111827">Regression: optimization, validation, residuals, and explainability</text><rect x="35.0" y="55.0" width="400.0" height="235.0" rx="5" fill="#f9fafb" stroke="#d1d5db"/><text x="47.0" y="79.0" text-anchor="start" font-family="Arial,sans-serif" font-size="14" font-weight="bold" fill="#111827">A. Scratch optimization path</text><line x1="80.0" y1="255.0" x2="417.0" y2="255.0" stroke="#374151" stroke-width="1"/><line x1="80.0" y1="100.0" x2="80.0" y2="255.0" stroke="#374151" stroke-width="1"/><polyline points="80.0,100.0 88.3,121.5 96.6,138.8 105.0,153.3 113.3,165.5 121.6,175.8 129.9,184.8 138.2,192.3 146.6,198.8 154.9,204.3 163.2,209.4 171.5,213.4 179.8,216.9 188.2,219.9 196.5,222.8 204.8,225.4 213.1,227.9 221.4,230.0 229.7,232.0 238.1,233.7 249.2,235.9 257.5,237.3 265.8,238.9 274.1,240.1 282.4,241.2 290.8,242.1 299.1,243.3 307.4,244.5 315.7,245.4 324.0,246.5 332.4,247.6 340.7,248.4 349.0,249.4 357.3,250.2 365.6,250.8 373.9,251.8 382.3,252.6 390.6,253.5 398.9,254.0 410.0,255.0" fill="none" stroke="#2563eb" stroke-width="2"/><polyline points="80.0,100.0 88.3,137.4 96.6,171.8 105.0,194.7 113.3,211.9 121.6,225.7 129.9,236.4 138.2,242.8 146.6,248.1 154.9,250.9 163.2,252.6 171.5,252.7 179.8,252.7 188.2,253.8 196.5,255.0 204.8,254.2 213.1,252.3 221.4,251.8 229.7,250.1 238.1,250.2 249.2,248.7 257.5,247.2 265.8,246.9 274.1,245.8 282.4,246.1 290.8,245.6 299.1,244.7 307.4,244.2 315.7,243.9 324.0,241.9 332.4,240.8 340.7,240.6 349.0,239.2 357.3,238.3 365.6,237.8 373.9,237.2 382.3,236.9 390.6,235.6 398.9,234.9 410.0,233.2" fill="none" stroke="#dc2626" stroke-width="2"/><text x="90.0" y="117.0" text-anchor="start" font-family="Arial,sans-serif" font-size="10" font-weight="normal" fill="#2563eb">train RMSE</text><text x="185.0" y="117.0" text-anchor="start" font-family="Arial,sans-serif" font-size="10" font-weight="normal" fill="#dc2626">validation RMSE</text><text x="235.0" y="278.0" text-anchor="middle" font-family="Arial,sans-serif" font-size="11" font-weight="normal" fill="#111827">stage</text><text x="51.0" y="172.5" text-anchor="middle" font-family="Arial,sans-serif" font-size="11" font-weight="normal" fill="#111827" transform="rotate(-90 51 172.5)">RMSE</text><rect x="465.0" y="55.0" width="400.0" height="235.0" rx="5" fill="#f9fafb" stroke="#d1d5db"/><text x="477.0" y="79.0" text-anchor="start" font-family="Arial,sans-serif" font-size="14" font-weight="bold" fill="#111827">B. Validation baseline comparison</text><text x="580.0" y="121.0" text-anchor="end" font-family="Arial,sans-serif" font-size="10" font-weight="normal" fill="#111827">dummy</text><rect x="590.0" y="107.0" width="236.1" height="22.0" rx="2" fill="#9ca3af" stroke="none"/><text x="833.1" y="122.0" text-anchor="start" font-family="Arial,sans-serif" font-size="10" font-weight="normal" fill="#111827">77.90</text><text x="580.0" y="161.0" text-anchor="end" font-family="Arial,sans-serif" font-size="10" font-weight="normal" fill="#111827">ridge</text><rect x="590.0" y="147.0" width="220.9" height="22.0" rx="2" fill="#dc2626" stroke="none"/><text x="817.9" y="162.0" text-anchor="start" font-family="Arial,sans-serif" font-size="10" font-weight="normal" fill="#111827">72.88</text><text x="580.0" y="201.0" text-anchor="end" font-family="Arial,sans-serif" font-size="10" font-weight="normal" fill="#111827">random forest</text><rect x="590.0" y="187.0" width="188.7" height="22.0" rx="2" fill="#059669" stroke="none"/><text x="785.7" y="202.0" text-anchor="start" font-family="Arial,sans-serif" font-size="10" font-weight="normal" fill="#111827">62.27</text><text x="580.0" y="241.0" text-anchor="end" font-family="Arial,sans-serif" font-size="10" font-weight="normal" fill="#111827">gradient boosting</text><rect x="590.0" y="227.0" width="185.1" height="22.0" rx="2" fill="#7c3aed" stroke="none"/><text x="782.1" y="242.0" text-anchor="start" font-family="Arial,sans-serif" font-size="10" font-weight="normal" fill="#111827">61.07</text><rect x="35.0" y="320.0" width="400.0" height="260.0" rx="5" fill="#f9fafb" stroke="#d1d5db"/><text x="47.0" y="344.0" text-anchor="start" font-family="Arial,sans-serif" font-size="14" font-weight="bold" fill="#111827">C. Held-out residual structure</text><line x1="80.0" y1="545.0" x2="417.0" y2="545.0" stroke="#374151" stroke-width="1"/><line x1="80.0" y1="365.0" x2="80.0" y2="545.0" stroke="#374151" stroke-width="1"/><line x1="80.0" y1="448.7" x2="417.0" y2="448.7" stroke="#6b7280" stroke-width="1" stroke-dasharray="5 4"/><circle cx="185.5" cy="391.2" r="2.3" fill="#2563eb" opacity="0.55"/><circle cx="344.7" cy="467.6" r="2.3" fill="#2563eb" opacity="0.55"/><circle cx="326.0" cy="449.5" r="2.3" fill="#2563eb" opacity="0.55"/><circle cx="186.8" cy="476.5" r="2.3" fill="#2563eb" opacity="0.55"/><circle cx="131.9" cy="445.5" r="2.3" fill="#2563eb" opacity="0.55"/><circle cx="118.7" cy="460.6" r="2.3" fill="#2563eb" opacity="0.55"/><circle cx="271.4" cy="470.2" r="2.3" fill="#2563eb" opacity="0.55"/><circle cx="88.5" cy="402.7" r="2.3" fill="#2563eb" opacity="0.55"/><circle cx="234.4" cy="486.5" r="2.3" fill="#2563eb" opacity="0.55"/><circle cx="82.6" cy="454.6" r="2.3" fill="#2563eb" opacity="0.55"/><circle cx="135.4" cy="437.7" r="2.3" fill="#2563eb" opacity="0.55"/><circle cx="199.2" cy="425.3" r="2.3" fill="#2563eb" opacity="0.55"/><circle cx="167.1" cy="474.4" r="2.3" fill="#2563eb" opacity="0.55"/><circle cx="86.4" cy="456.6" r="2.3" fill="#2563eb" opacity="0.55"/><circle cx="220.9" cy="498.6" r="2.3" fill="#2563eb" opacity="0.55"/><circle cx="154.3" cy="465.6" r="2.3" fill="#2563eb" opacity="0.55"/><circle cx="144.5" cy="426.7" r="2.3" fill="#2563eb" opacity="0.55"/><circle cx="139.0" cy="467.8" r="2.3" fill="#2563eb" opacity="0.55"/><circle cx="129.1" cy="462.6" r="2.3" fill="#2563eb" opacity="0.55"/><circle cx="132.1" cy="472.5" r="2.3" fill="#2563eb" opacity="0.55"/><circle cx="151.4" cy="395.3" r="2.3" fill="#2563eb" opacity="0.55"/><circle cx="233.0" cy="442.4" r="2.3" fill="#2563eb" opacity="0.55"/><circle cx="172.2" cy="395.9" r="2.3" fill="#2563eb" opacity="0.55"/><circle cx="282.4" cy="399.7" r="2.3" fill="#2563eb" opacity="0.55"/><circle cx="247.6" cy="512.0" r="2.3" fill="#2563eb" opacity="0.55"/><circle cx="249.6" cy="412.6" r="2.3" fill="#2563eb" opacity="0.55"/><circle cx="162.9" cy="399.2" r="2.3" fill="#2563eb" opacity="0.55"/><circle cx="131.7" cy="408.2" r="2.3" fill="#2563eb" opacity="0.55"/><circle cx="198.6" cy="422.2" r="2.3" fill="#2563eb" opacity="0.55"/><circle cx="291.8" cy="405.3" r="2.3" fill="#2563eb" opacity="0.55"/><circle cx="88.7" cy="446.1" r="2.3" fill="#2563eb" opacity="0.55"/><circle cx="192.1" cy="430.4" r="2.3" fill="#2563eb" opacity="0.55"/><circle cx="301.0" cy="480.3" r="2.3" fill="#2563eb" opacity="0.55"/><circle cx="158.9" cy="458.3" r="2.3" fill="#2563eb" opacity="0.55"/><circle cx="183.6" cy="504.4" r="2.3" fill="#2563eb" opacity="0.55"/><circle cx="186.8" cy="472.4" r="2.3" fill="#2563eb" opacity="0.55"/><text x="235.0" y="568.0" text-anchor="middle" font-family="Arial,sans-serif" font-size="11" font-weight="normal" fill="#111827">prediction</text><text x="51.0" y="450.0" text-anchor="middle" font-family="Arial,sans-serif" font-size="11" font-weight="normal" fill="#111827" transform="rotate(-90 51 450.0)">residual</text><text x="90.0" y="382.0" text-anchor="start" font-family="Arial,sans-serif" font-size="11" font-weight="normal" fill="#111827">test RMSE = 53.82</text><rect x="465.0" y="320.0" width="400.0" height="260.0" rx="5" fill="#f9fafb" stroke="#d1d5db"/><text x="477.0" y="344.0" text-anchor="start" font-family="Arial,sans-serif" font-size="14" font-weight="bold" fill="#111827">D. Validation-grounded explanation</text><text x="560.0" y="380.0" text-anchor="end" font-family="Arial,sans-serif" font-size="9" font-weight="normal" fill="#111827">s5</text><rect x="570.0" y="368.0" width="145.0" height="15.0" rx="2" fill="#059669" stroke="none"/><text x="720.0" y="380.0" text-anchor="start" font-family="Arial,sans-serif" font-size="9" font-weight="normal" fill="#111827">16.26</text><text x="560.0" y="407.0" text-anchor="end" font-family="Arial,sans-serif" font-size="9" font-weight="normal" fill="#111827">bmi</text><rect x="570.0" y="395.0" width="79.3" height="15.0" rx="2" fill="#059669" stroke="none"/><text x="720.0" y="407.0" text-anchor="start" font-family="Arial,sans-serif" font-size="9" font-weight="normal" fill="#111827">8.89</text><text x="560.0" y="434.0" text-anchor="end" font-family="Arial,sans-serif" font-size="9" font-weight="normal" fill="#111827">bp</text><rect x="570.0" y="422.0" width="24.6" height="15.0" rx="2" fill="#059669" stroke="none"/><text x="720.0" y="434.0" text-anchor="start" font-family="Arial,sans-serif" font-size="9" font-weight="normal" fill="#111827">2.76</text><text x="560.0" y="461.0" text-anchor="end" font-family="Arial,sans-serif" font-size="9" font-weight="normal" fill="#111827">sex</text><rect x="570.0" y="449.0" width="8.9" height="15.0" rx="2" fill="#059669" stroke="none"/><text x="720.0" y="461.0" text-anchor="start" font-family="Arial,sans-serif" font-size="9" font-weight="normal" fill="#111827">1.00</text><text x="560.0" y="488.0" text-anchor="end" font-family="Arial,sans-serif" font-size="9" font-weight="normal" fill="#111827">s3</text><rect x="570.0" y="476.0" width="6.7" height="15.0" rx="2" fill="#059669" stroke="none"/><text x="720.0" y="488.0" text-anchor="start" font-family="Arial,sans-serif" font-size="9" font-weight="normal" fill="#111827">0.75</text><line x1="700.0" y1="545.0" x2="845.0" y2="545.0" stroke="#374151" stroke-width="1"/><line x1="700.0" y1="475.0" x2="700.0" y2="545.0" stroke="#374151" stroke-width="1"/><polyline points="700.0,545.0 707.6,545.0 715.3,545.0 722.9,545.0 730.5,526.7 738.2,526.7 745.8,521.4 753.4,521.5 761.1,521.5 768.7,514.6 776.3,503.0 783.9,502.3 791.6,494.6 799.2,482.3 806.8,483.8 814.5,483.8 822.1,483.8 829.7,482.9 837.4,475.0 845.0,475.0" fill="none" stroke="#7c3aed" stroke-width="2"/><text x="772.5" y="563.0" text-anchor="middle" font-family="Arial,sans-serif" font-size="9" font-weight="normal" fill="#111827">s5</text><text x="720.0" y="465.0" text-anchor="start" font-family="Arial,sans-serif" font-size="10" font-weight="bold" fill="#111827">Partial dependence</text></svg>