<svg xmlns="http://www.w3.org/2000/svg" viewBox="0 0 900 620" role="img" aria-label="Classification diagnostics dashboard"><rect width="100%" height="100%" fill="white"/><text x="450.0" y="30.0" text-anchor="middle" font-family="Arial,sans-serif" font-size="20" font-weight="bold" fill="#111827">Classification: log-loss, discrimination, decision cost, and explanation</text><rect x="35.0" y="55.0" width="400.0" height="235.0" rx="5" fill="#f9fafb" stroke="#d1d5db"/><text x="47.0" y="79.0" text-anchor="start" font-family="Arial,sans-serif" font-size="14" font-weight="bold" fill="#111827">A. Scratch binary log-loss path</text><line x1="80.0" y1="255.0" x2="417.0" y2="255.0" stroke="#374151" stroke-width="1"/><line x1="80.0" y1="100.0" x2="80.0" y2="255.0" stroke="#374151" stroke-width="1"/><polyline points="80.0,100.0 88.3,126.0 96.6,145.6 105.0,161.2 113.3,173.8 121.6,184.2 129.9,192.9 138.2,200.2 146.6,206.4 154.9,211.8 163.2,216.3 171.5,220.3 179.8,223.7 188.2,226.7 196.5,229.3 204.8,231.7 213.1,233.9 221.4,235.8 229.7,237.6 238.1,239.2 249.2,241.1 257.5,242.4 265.8,243.7 274.1,244.8 282.4,245.7 290.8,246.5 299.1,247.2 307.4,248.1 315.7,248.8 324.0,249.5 332.4,250.1 340.7,250.7 349.0,251.3 357.3,252.0 365.6,252.5 373.9,253.0 382.3,253.5 390.6,254.0 398.9,254.5 410.0,255.0" fill="none" stroke="#2563eb" stroke-width="2"/><polyline points="80.0,100.0 88.3,121.6 96.6,141.6 105.0,155.6 113.3,168.4 121.6,177.6 129.9,187.8 138.2,194.6 146.6,201.3 154.9,207.8 163.2,213.6 171.5,217.2 179.8,221.1 188.2,224.0 196.5,227.3 204.8,229.8 213.1,232.4 221.4,234.6 229.7,236.7 238.1,238.3 249.2,241.0 257.5,242.4 265.8,243.6 274.1,245.1 282.4,245.7 290.8,246.1 299.1,247.3 307.4,248.1 315.7,248.8 324.0,249.2 332.4,249.7 340.7,250.5 349.0,250.5 357.3,251.5 365.6,252.4 373.9,253.0 382.3,253.4 390.6,254.1 398.9,254.5 410.0,255.0" fill="none" stroke="#dc2626" stroke-width="2"/><text x="90.0" y="117.0" text-anchor="start" font-family="Arial,sans-serif" font-size="10" font-weight="normal" fill="#2563eb">train log-loss</text><text x="190.0" y="117.0" text-anchor="start" font-family="Arial,sans-serif" font-size="10" font-weight="normal" fill="#dc2626">validation log-loss</text><text x="235.0" y="278.0" text-anchor="middle" font-family="Arial,sans-serif" font-size="11" font-weight="normal" fill="#111827">stage</text><text x="51.0" y="172.5" text-anchor="middle" font-family="Arial,sans-serif" font-size="11" font-weight="normal" fill="#111827" transform="rotate(-90 51 172.5)">log-loss</text><rect x="465.0" y="55.0" width="400.0" height="235.0" rx="5" fill="#f9fafb" stroke="#d1d5db"/><text x="477.0" y="79.0" text-anchor="start" font-family="Arial,sans-serif" font-size="14" font-weight="bold" fill="#111827">B. Validation ROC-AUC comparison</text><text x="570.0" y="132.0" text-anchor="end" font-family="Arial,sans-serif" font-size="10" font-weight="normal" fill="#111827">dummy</text><rect x="580.0" y="117.0" width="125.0" height="24.0" rx="2" fill="#9ca3af" stroke="none"/><text x="712.0" y="133.0" text-anchor="start" font-family="Arial,sans-serif" font-size="10" font-weight="normal" fill="#111827">0.500</text><text x="570.0" y="182.0" text-anchor="end" font-family="Arial,sans-serif" font-size="10" font-weight="normal" fill="#111827">logistic</text><rect x="580.0" y="167.0" width="249.5" height="24.0" rx="2" fill="#dc2626" stroke="none"/><text x="836.5" y="183.0" text-anchor="start" font-family="Arial,sans-serif" font-size="10" font-weight="normal" fill="#111827">0.998</text><text x="570.0" y="232.0" text-anchor="end" font-family="Arial,sans-serif" font-size="10" font-weight="normal" fill="#111827">gradient boosting</text><rect x="580.0" y="217.0" width="249.1" height="24.0" rx="2" fill="#7c3aed" stroke="none"/><text x="836.1" y="233.0" text-anchor="start" font-family="Arial,sans-serif" font-size="10" font-weight="normal" fill="#111827">0.996</text><rect x="35.0" y="320.0" width="400.0" height="260.0" rx="5" fill="#f9fafb" stroke="#d1d5db"/><text x="47.0" y="344.0" text-anchor="start" font-family="Arial,sans-serif" font-size="14" font-weight="bold" fill="#111827">C. Held-out discrimination and threshold cost</text><line x1="80.0" y1="495.0" x2="225.0" y2="495.0" stroke="#374151" stroke-width="1"/><line x1="80.0" y1="375.0" x2="80.0" y2="495.0" stroke="#374151" stroke-width="1"/><line x1="80.0" y1="495.0" x2="225.0" y2="375.0" stroke="#9ca3af" stroke-width="1" stroke-dasharray="4 4"/><polyline points="80.0,495.0 80.0,493.7 80.0,385.7 85.5,385.7 85.5,383.0 88.2,383.0 88.2,381.7 90.9,381.7 90.9,377.7 93.7,377.7 93.7,375.0 181.2,375.0 186.7,375.0 211.3,375.0 216.8,375.0 225.0,375.0" fill="none" stroke="#2563eb" stroke-width="2"/><text x="152.5" y="513.0" text-anchor="middle" font-family="Arial,sans-serif" font-size="9" font-weight="normal" fill="#111827">ROC AUC 0.994</text><line x1="250.0" y1="495.0" x2="395.0" y2="495.0" stroke="#374151" stroke-width="1"/><line x1="250.0" y1="375.0" x2="250.0" y2="495.0" stroke="#374151" stroke-width="1"/><polyline points="395.0,419.5 395.0,417.9 395.0,415.0 395.0,413.2 395.0,410.0 395.0,407.2 395.0,405.0 395.0,401.9 395.0,399.4 395.0,395.9 395.0,392.1 395.0,389.1 395.0,384.8 393.4,381.4 390.2,380.3 385.3,379.1 382.1,377.9 378.9,375.0 372.4,375.0 367.6,375.0 361.2,375.0 356.3,375.0 349.9,375.0 343.4,375.0 338.6,375.0 332.2,375.0 325.7,375.0 320.9,375.0 314.4,375.0 309.6,375.0 303.2,375.0 296.7,375.0 291.9,375.0 285.4,375.0 280.6,375.0 274.2,375.0 267.7,375.0 262.9,375.0 256.4,375.0 250.0,375.0" fill="none" stroke="#059669" stroke-width="2"/><text x="322.5" y="513.0" text-anchor="middle" font-family="Arial,sans-serif" font-size="9" font-weight="normal" fill="#111827">AP 0.996</text><polyline points="100.0,557.5 106.0,558.1 112.0,558.1 118.0,559.4 127.0,559.4 133.0,559.4 139.0,559.4 148.0,559.4 154.0,559.4 160.0,559.4 169.0,559.4 175.0,559.4 181.0,559.4 187.0,559.4 196.0,559.4 202.0,560.0 208.0,556.8 217.0,556.8 223.0,556.8 229.0,556.8 238.0,556.8 244.0,553.6 250.0,553.6 259.0,553.6 265.0,553.6 271.0,553.6 277.0,554.3 286.0,547.9 292.0,544.7 298.0,544.7 307.0,545.4 313.0,542.2 319.0,542.2 328.0,542.8 334.0,542.8 340.0,536.5 349.0,536.5 355.0,536.5 361.0,534.5 370.0,525.0" fill="none" stroke="#dc2626" stroke-width="2"/><line x1="202.0" y1="525.0" x2="202.0" y2="560.0" stroke="#111827" stroke-width="1" stroke-dasharray="3 3"/><text x="235.0" y="570.0" text-anchor="middle" font-family="Arial,sans-serif" font-size="10" font-weight="normal" fill="#111827">cost-optimal threshold = 0.39</text><rect x="465.0" y="320.0" width="400.0" height="260.0" rx="5" fill="#f9fafb" stroke="#d1d5db"/><text x="477.0" y="344.0" text-anchor="start" font-family="Arial,sans-serif" font-size="14" font-weight="bold" fill="#111827">D. Probability quality and explanation</text><text x="570.0" y="380.0" text-anchor="end" font-family="Arial,sans-serif" font-size="8" font-weight="normal" fill="#111827">worst concave poin</text><rect x="580.0" y="368.0" width="145.0" height="15.0" rx="2" fill="#7c3aed" stroke="none"/><text x="570.0" y="407.0" text-anchor="end" font-family="Arial,sans-serif" font-size="8" font-weight="normal" fill="#111827">worst perimeter</text><rect x="580.0" y="395.0" width="46.4" height="15.0" rx="2" fill="#7c3aed" stroke="none"/><text x="570.0" y="434.0" text-anchor="end" font-family="Arial,sans-serif" font-size="8" font-weight="normal" fill="#111827">worst area</text><rect x="580.0" y="422.0" width="40.5" height="15.0" rx="2" fill="#7c3aed" stroke="none"/><text x="570.0" y="461.0" text-anchor="end" font-family="Arial,sans-serif" font-size="8" font-weight="normal" fill="#111827">worst texture</text><rect x="580.0" y="449.0" width="39.5" height="15.0" rx="2" fill="#7c3aed" stroke="none"/><text x="570.0" y="488.0" text-anchor="end" font-family="Arial,sans-serif" font-size="8" font-weight="normal" fill="#111827">mean texture</text><rect x="580.0" y="476.0" width="23.9" height="15.0" rx="2" fill="#7c3aed" stroke="none"/><text x="730.0" y="384.0" text-anchor="start" font-family="Arial,sans-serif" font-size="10" font-weight="normal" fill="#111827">log-loss 0.098</text><text x="730.0" y="404.0" text-anchor="start" font-family="Arial,sans-serif" font-size="10" font-weight="normal" fill="#111827">Brier 0.031</text><line x1="700.0" y1="545.0" x2="845.0" y2="545.0" stroke="#374151" stroke-width="1"/><line x1="700.0" y1="470.0" x2="700.0" y2="545.0" stroke="#374151" stroke-width="1"/><polyline points="700.0,470.0 707.6,470.0 715.3,470.0 722.9,470.0 730.5,470.0 738.2,470.0 745.8,472.1 753.4,472.1 761.1,472.1 768.7,477.6 776.3,477.9 783.9,488.4 791.6,505.3 799.2,506.1 806.8,517.1 814.5,539.8 822.1,545.0 829.7,545.0 837.4,545.0 845.0,545.0" fill="none" stroke="#059669" stroke-width="2"/><text x="772.5" y="563.0" text-anchor="middle" font-family="Arial,sans-serif" font-size="9" font-weight="normal" fill="#111827">worst concave poin</text><text x="715.0" y="460.0" text-anchor="start" font-family="Arial,sans-serif" font-size="10" font-weight="bold" fill="#111827">Partial dependence</text></svg>