<svg xmlns="http://www.w3.org/2000/svg" viewBox="0 0 720 420" role="img" aria-label="Manual stage-wise residual correction"><rect width="100%" height="100%" fill="white"/><text x="360.0" y="28.0" text-anchor="middle" font-family="Arial,sans-serif" font-size="18" font-weight="bold" fill="#111827">Manual stage-wise residual correction</text><line x1="75" y1="350" x2="675" y2="350" stroke="#374151"/><line x1="75" y1="55" x2="75" y2="350" stroke="#374151"/><text x="375.0" y="388.0" text-anchor="middle" font-family="Arial,sans-serif" font-size="13" font-weight="normal" fill="#111827">x</text><text x="30.0" y="202.5" text-anchor="middle" font-family="Arial,sans-serif" font-size="13" font-weight="normal" fill="#111827" transform="rotate(-90 30 202.5)">prediction</text><polyline points="102.3,336.6 211.4,317.4 320.5,279.1 429.5,221.7 538.6,125.9 647.7,68.4" fill="none" stroke="#111827" stroke-width="2"/><line x1="530" y1="70" x2="550" y2="70" stroke="#111827" stroke-width="3"/><text x="557.0" y="75.0" text-anchor="start" font-family="Arial,sans-serif" font-size="11" font-weight="normal" fill="#111827">observed</text><polyline points="102.3,224.8 211.4,224.8 320.5,224.8 429.5,224.8 538.6,224.8 647.7,224.8" fill="none" stroke="#2563eb" stroke-width="2"/><line x1="530" y1="90" x2="550" y2="90" stroke="#2563eb" stroke-width="3"/><text x="557.0" y="95.0" text-anchor="start" font-family="Arial,sans-serif" font-size="11" font-weight="normal" fill="#111827">stage 0</text><polyline points="102.3,244.0 211.4,244.0 320.5,244.0 429.5,244.0 538.6,186.5 647.7,186.5" fill="none" stroke="#dc2626" stroke-width="2"/><line x1="530" y1="110" x2="550" y2="110" stroke="#dc2626" stroke-width="3"/><text x="557.0" y="115.0" text-anchor="start" font-family="Arial,sans-serif" font-size="11" font-weight="normal" fill="#111827">stage 1</text><polyline points="102.3,264.1 211.4,264.1 320.5,264.1 429.5,223.9 538.6,166.4 647.7,166.4" fill="none" stroke="#059669" stroke-width="2"/><line x1="530" y1="130" x2="550" y2="130" stroke="#059669" stroke-width="3"/><text x="557.0" y="135.0" text-anchor="start" font-family="Arial,sans-serif" font-size="11" font-weight="normal" fill="#111827">stage 2</text><polyline points="102.3,274.5 211.4,274.5 320.5,274.5 429.5,234.3 538.6,145.6 647.7,145.6" fill="none" stroke="#7c3aed" stroke-width="2"/><line x1="530" y1="150" x2="550" y2="150" stroke="#7c3aed" stroke-width="3"/><text x="557.0" y="155.0" text-anchor="start" font-family="Arial,sans-serif" font-size="11" font-weight="normal" fill="#111827">stage 3</text><text x="75.0" y="368.0" text-anchor="middle" font-family="Arial,sans-serif" font-size="10" font-weight="normal" fill="#111827">0.75</text><text x="67.0" y="354.0" text-anchor="end" font-family="Arial,sans-serif" font-size="10" font-weight="normal" fill="#111827">1.6</text><text x="225.0" y="368.0" text-anchor="middle" font-family="Arial,sans-serif" font-size="10" font-weight="normal" fill="#111827">2.1</text><text x="67.0" y="280.2" text-anchor="end" font-family="Arial,sans-serif" font-size="10" font-weight="normal" fill="#111827">3.6</text><text x="375.0" y="368.0" text-anchor="middle" font-family="Arial,sans-serif" font-size="10" font-weight="normal" fill="#111827">3.5</text><text x="67.0" y="206.5" text-anchor="end" font-family="Arial,sans-serif" font-size="10" font-weight="normal" fill="#111827">5.5</text><text x="525.0" y="368.0" text-anchor="middle" font-family="Arial,sans-serif" font-size="10" font-weight="normal" fill="#111827">4.9</text><text x="67.0" y="132.8" text-anchor="end" font-family="Arial,sans-serif" font-size="10" font-weight="normal" fill="#111827">7.4</text><text x="675.0" y="368.0" text-anchor="middle" font-family="Arial,sans-serif" font-size="10" font-weight="normal" fill="#111827">6.2</text><text x="67.0" y="59.0" text-anchor="end" font-family="Arial,sans-serif" font-size="10" font-weight="normal" fill="#111827">9.3</text></svg>