<svg xmlns="http://www.w3.org/2000/svg" viewBox="0 0 760 420" role="img" aria-label="Dataset target structure"><rect width="100%" height="100%" fill="white"/><text x="380.0" y="28.0" text-anchor="middle" font-family="Arial,sans-serif" font-size="18" font-weight="bold" fill="#111827">Dataset target structure</text><line x1="55" y1="332" x2="365" y2="332" stroke="#374151"/><line x1="55" y1="62" x2="55" y2="332" stroke="#374151"/><text x="210.0" y="370.0" text-anchor="middle" font-family="Arial,sans-serif" font-size="13" font-weight="normal" fill="#111827">target bin</text><text x="10.0" y="197.0" text-anchor="middle" font-family="Arial,sans-serif" font-size="13" font-weight="normal" fill="#111827" transform="rotate(-90 10 197.0)">count</text><text x="210.0" y="53.0" text-anchor="middle" font-family="Arial,sans-serif" font-size="13" font-weight="bold" fill="#111827">Regression target</text><polyline points="69.1,248.0 94.7,74.3 120.3,89.4 146.0,164.9 171.6,157.3 197.2,172.5 222.8,210.2 248.4,225.3 274.0,202.7 299.7,240.4 325.3,289.5 350.9,319.7" fill="none" stroke="#2563eb" stroke-width="2"/><text x="290.0" y="75.0" text-anchor="start" font-family="Arial,sans-serif" font-size="10" font-weight="normal" fill="#2563eb">frequency</text><line x1="435" y1="332" x2="745" y2="332" stroke="#374151"/><line x1="435" y1="62" x2="435" y2="332" stroke="#374151"/><text x="590.0" y="370.0" text-anchor="middle" font-family="Arial,sans-serif" font-size="13" font-weight="normal" fill="#111827">class</text><text x="390.0" y="197.0" text-anchor="middle" font-family="Arial,sans-serif" font-size="13" font-weight="normal" fill="#111827" transform="rotate(-90 390 197.0)">count</text><text x="590.0" y="53.0" text-anchor="middle" font-family="Arial,sans-serif" font-size="13" font-weight="bold" fill="#111827">Classification target</text><polyline points="449.1,319.7 730.9,74.3" fill="none" stroke="#dc2626" stroke-width="2"/><text x="670.0" y="75.0" text-anchor="start" font-family="Arial,sans-serif" font-size="10" font-weight="normal" fill="#dc2626">class count</text></svg>